<?xml version="1.0" encoding="UTF-8" standalone="no"?>
<!-- Created with Inkscape (http://www.inkscape.org/) -->

<svg
   width="332"
   height="332"
   viewBox="0 0 87.841665 87.841666"
   version="1.1"
   id="svg5"
   xml:space="preserve"
   inkscape:version="1.2.2 (b0a8486541, 2022-12-01)"
   sodipodi:docname="brasco2.svg"
   xmlns:inkscape="http://www.inkscape.org/namespaces/inkscape"
   xmlns:sodipodi="http://sodipodi.sourceforge.net/DTD/sodipodi-0.dtd"
   xmlns="http://www.w3.org/2000/svg"
   xmlns:svg="http://www.w3.org/2000/svg"><sodipodi:namedview
     id="namedview7"
     pagecolor="#ffffff"
     bordercolor="#000000"
     borderopacity="0.25"
     inkscape:showpageshadow="2"
     inkscape:pageopacity="0.0"
     inkscape:pagecheckerboard="0"
     inkscape:deskcolor="#d1d1d1"
     inkscape:document-units="mm"
     showgrid="false"
     inkscape:zoom="1.6352936"
     inkscape:cx="192.62597"
     inkscape:cy="122.91371"
     inkscape:window-width="1600"
     inkscape:window-height="829"
     inkscape:window-x="-8"
     inkscape:window-y="-8"
     inkscape:window-maximized="1"
     inkscape:current-layer="layer1" /><defs
     id="defs2" /><g
     inkscape:label="Camada 1"
     inkscape:groupmode="layer"
     id="layer1"><path
       style="fill:#d40000;stroke-width:0.264583;stroke:none"
       d="M 2.0253186,44.051134 V 0.13029087 H 42.241986 82.458656 V 44.051134 87.971965 H 42.241986 2.0253186 Z m 68.7916674,0 v -26.45834 h -8.14973 -8.14974 l -1.26826,15.27969 c -0.69753,8.40383 -1.28664,15.295 -1.30912,15.31371 -0.0225,0.0187 -1.75015,-1.08655 -3.83926,-2.45612 l -3.79839,-2.49013 -3.71254,2.41276 c -2.52113,1.63848 -3.77424,2.31289 -3.90485,2.10156 -0.10578,-0.17115 -0.2554,-1.28274 -0.3325,-2.47018 -0.28396,-4.37393 -2.08268,-26.51999 -2.20075,-27.09598 l -0.12203,-0.59531 h -8.19948 -8.19949 l 0.007,26.45834 0.007,26.45833 h 26.58566 26.58565 z m -33.50628,18.1521 c -3.80361,-2.48933 -7.07783,-4.66471 -7.27604,-4.83416 -0.32896,-0.28123 -0.36006,-0.79658 -0.24015,-3.9805 0.007,-0.17592 2.24447,1.14444 4.97299,2.93414 2.72851,1.78969 5.98735,3.91533 7.24188,4.72363 l 2.28093,1.46965 7.11176,-4.62722 c 3.91149,-2.54497 7.20108,-4.68253 7.31022,-4.75013 0.10914,-0.0676 0.19844,0.82508 0.19844,1.98374 v 2.10664 l -7.05444,4.5897 c -3.87994,2.52433 -7.18391,4.6619 -7.34218,4.75014 -0.15827,0.0882 -3.3998,-1.87629 -7.20341,-4.36563 z m 3.47606,-6.93593 c -1.89177,-1.24897 -3.48378,-2.31362 -3.53781,-2.36588 -0.21404,-0.20705 6.92148,-4.64427 7.25974,-4.51447 0.19907,0.0764 1.84944,1.10566 3.66752,2.28727 l 3.30559,2.14839 -3.56724,2.36113 c -1.96198,1.29863 -3.59445,2.35963 -3.62772,2.35778 -0.0333,-0.002 -1.6083,-1.02525 -3.50008,-2.27422 z"
       id="path179" /><rect
       style="opacity:1;fill:#d40000;fill-opacity:1;stroke:none;stroke-width:0.256879"
       id="rect322"
       width="16.826744"
       height="88.178612"
       x="-0.97077334"
       y="-0.16179569" /><rect
       style="fill:#d40000;fill-opacity:1;stroke:none;stroke-width:0.256879"
       id="rect322-8"
       width="16.826744"
       height="88.178612"
       x="71.837257"
       y="-0.4853861" /></g></svg>
