<?xml version="1.0" encoding="UTF-8" standalone="no"?>
<!-- Created with Inkscape (http://www.inkscape.org/) -->

<svg
   width="304"
   height="332"
   viewBox="0 0 80.433334 87.84167"
   version="1.1"
   id="svg5"
   xml:space="preserve"
   inkscape:export-filename="bitmap.svg"
   inkscape:export-xdpi="96"
   inkscape:export-ydpi="96"
   sodipodi:docname="brasco.svg"
   inkscape:version="1.1.1 (3bf5ae0d25, 2021-09-20)"
   xmlns:inkscape="http://www.inkscape.org/namespaces/inkscape"
   xmlns:sodipodi="http://sodipodi.sourceforge.net/DTD/sodipodi-0.dtd"
   xmlns="http://www.w3.org/2000/svg"
   xmlns:svg="http://www.w3.org/2000/svg"><sodipodi:namedview
     id="namedview7"
     pagecolor="#ffffff"
     bordercolor="#000000"
     borderopacity="0.25"
     inkscape:showpageshadow="2"
     inkscape:pageopacity="0.0"
     inkscape:pagecheckerboard="0"
     inkscape:deskcolor="#d1d1d1"
     inkscape:document-units="mm"
     showgrid="false"
     inkscape:pageshadow="2"
     units="px"
     width="304px"
     inkscape:zoom="1.4681257"
     inkscape:cx="93.997401"
     inkscape:cy="272.7968"
     inkscape:window-width="1920"
     inkscape:window-height="1009"
     inkscape:window-x="-8"
     inkscape:window-y="-8"
     inkscape:window-maximized="1"
     inkscape:current-layer="layer1" /><defs
     id="defs2" /><g
     inkscape:label="Camada 1"
     inkscape:groupmode="layer"
     id="layer1"><path
       style="fill:#d40000;stroke-width:0.264583"
       d="M 0.14015069,43.947755 V 0.02691485 H 40.356815 80.57349 V 43.947755 87.86859 H 40.356815 0.14015069 Z m 68.79166931,0 v -26.45834 h -8.14973 -8.14974 l -1.26826,15.27969 c -0.69753,8.40383 -1.28664,15.295003 -1.30912,15.313713 -0.0225,0.0187 -1.750149,-1.08655 -3.839259,-2.45612 l -3.798396,-2.490133 -3.71253,2.41276 c -2.52113,1.638483 -3.774243,2.312893 -3.904852,2.101563 -0.105783,-0.17115 -0.255405,-1.28274 -0.332497,-2.470183 -0.283966,-4.37393 -2.082683,-26.51999 -2.200751,-27.09598 l -0.122031,-0.59531 h -8.199485 -8.199484 l 0.0074,26.45834 0.0074,26.458335 H 42.346135 68.93179 Z M 35.425543,62.09986 C 31.621935,59.61053 28.347715,57.43515 28.1495,57.2657 c -0.328964,-0.28123 -0.360055,-0.79658 -0.240146,-3.9805 0.0066,-0.17592 2.244469,1.14444 4.972985,2.93414 2.728515,1.78969 5.987356,3.91533 7.241876,4.72363 l 2.28093,1.46965 7.111765,-4.62722 c 3.91149,-2.54497 7.20108,-4.68253 7.31022,-4.75013 0.10914,-0.0676 0.19844,0.82508 0.19844,1.98374 v 2.10664 l -7.05444,4.5897 c -3.879939,2.52433 -7.183915,4.6619 -7.342185,4.75014 -0.15827,0.0882 -3.3998,-1.87629 -7.203402,-4.36563 z m 3.476062,-6.93593 c -1.89177,-1.24897 -3.483785,-2.31362 -3.537816,-2.36588 -0.214042,-0.20705 6.921476,-4.644272 7.259736,-4.514472 0.19907,0.0764 1.849446,1.10566 3.667526,2.28727 l 3.305589,2.148392 -3.567239,2.36113 c -1.96198,1.29863 -3.594456,2.35963 -3.627726,2.35778 -0.0333,-0.002 -1.6083,-1.02525 -3.50007,-2.27422 z"
       id="path179" /></g></svg>
